<?xml version="1.0" standalone="no"?><!DOCTYPE svg PUBLIC "-//W3C//DTD SVG 1.1//EN" "http://www.w3.org/Graphics/SVG/1.1/DTD/svg11.dtd"><svg t="1636989026710" class="icon" viewBox="0 0 1024 1024" version="1.1" xmlns="http://www.w3.org/2000/svg" p-id="2681" xmlns:xlink="http://www.w3.org/1999/xlink" width="200" height="200"><defs><style type="text/css"></style></defs><path d="M0 0h1024v1024H0z" fill="#FFFFFF" p-id="2682"></path><path d="M892.5 46.3H152.7c-44.9 0-81.6 36.7-81.6 81.6v739.8c0 44.9 36.7 81.6 81.6 81.6h739.8c44.9 0 81.6-36.7 81.6-81.6V127.9c0-44.8-36.7-81.6-81.6-81.6z" fill="#FF855C" p-id="2683"></path><path d="M522.6 871.5c-50.4 0-99.4-9.9-145.5-29.4-44.5-18.8-84.5-45.8-118.8-80.1s-61.3-74.3-80.1-118.8c-19.5-46.1-29.4-95-29.4-145.5 0-50.4 9.9-99.4 29.4-145.5 18.8-44.5 45.8-84.5 80.1-118.8s74.3-61.3 118.8-80.1c46.1-19.5 95-29.4 145.5-29.4 50.4 0 99.4 9.9 145.5 29.4 44.5 18.8 84.5 45.8 118.8 80.1s61.3 74.3 80.1 118.8c19.5 46.1 29.4 95 29.4 145.5 0 50.4-9.9 99.4-29.4 145.5-18.8 44.5-45.8 84.5-80.1 118.8s-74.3 61.3-118.8 80.1c-46.1 19.6-95 29.4-145.5 29.4z m0-727.4c-195 0-353.7 158.7-353.7 353.7s158.7 353.7 353.7 353.7 353.7-158.7 353.7-353.7-158.6-353.7-353.7-353.7z" fill="#FFFFFF" p-id="2684"></path><path d="M687.4 604.7H382.9l40.5-193.4h304.5l-40.5 193.4z m-283-17.5h268.7l33.1-158.3H437.6l-33.2 158.3zM427.8 712.8c-22.2 0-40.3-18.1-40.3-40.3s18.1-40.3 40.3-40.3c22.2 0 40.3 18.1 40.3 40.3s-18 40.3-40.3 40.3z m0-68.3c-15.5 0-28 12.6-28 28 0 15.5 12.6 28 28 28 15.5 0 28-12.6 28-28 0.1-15.4-12.5-28-28-28zM635.5 712.8c-22.2 0-40.3-18.1-40.3-40.3s18.1-40.3 40.3-40.3c22.2 0 40.3 18.1 40.3 40.3s-18 40.3-40.3 40.3z m0-68.3c-15.5 0-28 12.6-28 28 0 15.5 12.6 28 28 28 15.5 0 28-12.6 28-28 0.1-15.4-12.5-28-28-28z" fill="#FFFFFF" p-id="2685"></path><path d="M439 422.2l-17-4.2 28.8-117.7H317.4v-17.5h155.8zM471.766 599.866l36.817-181.496 17.15 3.48-36.817 181.495zM574.369 593.267l36.818-181.496 17.15 3.48-36.818 181.495z" fill="#FFFFFF" p-id="2686"></path><path d="M412.9 495.3h286.6v17.5H412.9z" fill="#FFFFFF" p-id="2687"></path></svg>